<svg width="59" height="65" viewBox="0 0 59 65" fill="none" xmlns="http://www.w3.org/2000/svg">
<path d="M43.218 41.8303C45.0017 41.8303 46.7453 41.2868 48.2283 40.2684C49.7114 39.2501 50.8673 37.8026 51.5498 36.1092C52.2324 34.4157 52.411 32.5523 52.063 30.7545C51.715 28.9567 50.8561 27.3053 49.5949 26.0092C48.3337 24.7131 46.7268 23.8304 44.9774 23.4728C43.228 23.1152 41.4147 23.2988 39.7669 24.0002C38.119 24.7017 36.7105 25.8895 35.7196 27.4136C34.7286 28.9377 34.1997 30.7295 34.1997 32.5625C34.1997 35.0205 35.1498 37.3778 36.8411 39.1159C38.5324 40.8539 40.8262 41.8303 43.218 41.8303Z" fill="#231F20"/>
<path d="M56.7455 65C57.3435 65 57.9169 64.7559 58.3397 64.3214C58.7626 63.8869 59.0001 63.2975 59.0001 62.683C59.0001 58.3816 57.3373 54.2563 54.3776 51.2147C51.4179 48.1732 47.4037 46.4644 43.2181 46.4644C39.0324 46.4644 35.0182 48.1732 32.0585 51.2147C29.0988 54.2563 27.436 58.3816 27.436 62.683C27.436 63.2975 27.6736 63.8869 28.0964 64.3214C28.5192 64.7559 29.0927 65 29.6906 65H56.7455Z" fill="#231F20"/>
</svg>
