<svg width="55" height="63" viewBox="0 0 55 63" fill="none" xmlns="http://www.w3.org/2000/svg">
<path d="M27.3885 29.0415C29.1895 29.0415 30.95 28.4312 32.4475 27.2879C33.945 26.1447 35.1121 24.5197 35.8013 22.6184C36.4906 20.7172 36.6709 18.6252 36.3195 16.6068C35.9682 14.5885 35.1009 12.7346 33.8274 11.2794C32.5539 9.82429 30.9314 8.83333 29.165 8.43186C27.3986 8.03039 25.5677 8.23644 23.9038 9.02395C22.2399 9.81147 20.8177 11.1451 19.8171 12.8561C18.8165 14.5672 18.2825 16.5788 18.2825 18.6367C18.2825 21.3962 19.2419 24.0427 20.9496 25.994C22.6573 27.9453 24.9734 29.0415 27.3885 29.0415Z" fill="#231F20"/>
<path d="M41.0474 55.0537C41.6512 55.0537 42.2302 54.7796 42.6572 54.2918C43.0841 53.804 43.3239 53.1424 43.3239 52.4525C43.3239 47.6233 41.645 42.992 38.6565 39.5772C35.668 36.1625 31.6148 34.2441 27.3884 34.2441C23.162 34.2441 19.1088 36.1625 16.1203 39.5772C13.1318 42.992 11.4529 47.6233 11.4529 52.4525C11.4529 53.1424 11.6927 53.804 12.1197 54.2918C12.5466 54.7796 13.1256 55.0537 13.7294 55.0537H41.0474Z" fill="#231F20"/>
</svg>
