<svg width="54" height="58" viewBox="0 0 54 58" fill="none" xmlns="http://www.w3.org/2000/svg">
<path d="M39.1283 37.0039C40.7431 37.0039 42.3217 36.5231 43.6644 35.6223C45.0071 34.7214 46.0536 33.441 46.6716 31.9429C47.2896 30.4448 47.4513 28.7964 47.1362 27.206C46.8212 25.6157 46.0436 24.1549 44.9017 23.0083C43.7598 21.8617 42.305 21.0809 40.7211 20.7645C39.1373 20.4482 37.4956 20.6105 36.0037 21.2311C34.5118 21.8516 33.2366 22.9024 32.3394 24.2506C31.4422 25.5989 30.9634 27.184 30.9634 28.8055C30.9634 30.9798 31.8236 33.0652 33.3548 34.6027C34.886 36.1402 36.9628 37.0039 39.1283 37.0039Z" fill="#231F20"/>
<path d="M51.3757 57.5003C51.917 57.5003 52.4362 57.2843 52.819 56.9C53.2018 56.5156 53.4169 55.9943 53.4169 55.4507C53.4169 51.6455 51.9115 47.9962 49.2319 45.3056C46.5523 42.6149 42.9179 41.1033 39.1284 41.1033C35.3388 41.1033 31.7045 42.6149 29.0249 45.3056C26.3452 47.9962 24.8398 51.6455 24.8398 55.4507C24.8398 55.9943 25.0549 56.5156 25.4377 56.9C25.8205 57.2843 26.3397 57.5003 26.8811 57.5003H51.3757Z" fill="#231F20"/>
</svg>
