<svg width="48" height="54" viewBox="0 0 48 54" fill="none" xmlns="http://www.w3.org/2000/svg">
<path d="M33.6682 34.4298C35.2221 34.4298 36.7411 33.9824 38.0331 33.1442C39.3251 32.306 40.3322 31.1146 40.9268 29.7208C41.5215 28.3269 41.6771 26.7932 41.3739 25.3134C41.0708 23.8337 40.3225 22.4745 39.2237 21.4077C38.1249 20.3409 36.725 19.6144 35.201 19.32C33.6769 19.0257 32.0972 19.1768 30.6616 19.7541C29.226 20.3315 27.9989 21.3092 27.1356 22.5636C26.2723 23.8181 25.8115 25.2929 25.8115 26.8016C25.8115 28.8247 26.6393 30.765 28.1127 32.1955C29.5861 33.6261 31.5845 34.4298 33.6682 34.4298Z" fill="#231F20"/>
<path d="M45.4531 53.5003C45.9741 53.5003 46.4737 53.2994 46.842 52.9418C47.2104 52.5841 47.4173 52.0991 47.4173 51.5933C47.4173 48.0528 45.9687 44.6574 43.3903 42.1539C40.8118 39.6505 37.3146 38.244 33.6681 38.244C30.0216 38.244 26.5245 39.6505 23.946 42.1539C21.3675 44.6574 19.9189 48.0528 19.9189 51.5933C19.9189 52.0991 20.1259 52.5841 20.4942 52.9418C20.8626 53.2994 21.3622 53.5003 21.8831 53.5003H45.4531Z" fill="#231F20"/>
</svg>
