<svg width="95" height="76" viewBox="0 0 95 76" fill="none" xmlns="http://www.w3.org/2000/svg">
<path d="M39.4587 60.0368C38.5436 60.0382 37.6567 59.7839 36.952 59.3181C36.5555 59.0558 36.2276 58.7337 35.9873 58.3701C35.747 58.0066 35.599 57.6088 35.5517 57.1996C35.5044 56.7903 35.5588 56.3777 35.7117 55.9852C35.8646 55.5928 36.1131 55.2282 36.4429 54.9125L53.9895 38.1649L37.0696 21.386C36.7442 21.0664 36.5013 20.6987 36.3546 20.3039C36.208 19.9092 36.1607 19.4952 36.2153 19.0858C36.2699 18.6764 36.4253 18.2796 36.6728 17.9183C36.9202 17.557 37.2547 17.2383 37.657 16.9804C38.0623 16.696 38.5369 16.4814 39.051 16.3502C39.5651 16.219 40.1076 16.174 40.6446 16.218C41.1815 16.262 41.7013 16.3941 42.1712 16.606C42.6411 16.8178 43.0511 17.1049 43.3754 17.4491L62.2929 36.1964C62.869 36.7555 63.1839 37.4568 63.1839 38.1805C63.1839 38.9042 62.869 39.6055 62.2929 40.1646L42.7095 58.9119C42.3166 59.29 41.8175 59.589 41.2527 59.7844C40.6879 59.9798 40.0733 60.0663 39.4587 60.0368Z" fill="#231F20"/>
</svg>
