<svg width="54" height="58" viewBox="0 0 54 58" fill="none" xmlns="http://www.w3.org/2000/svg">
<path d="M47.25 17.2571C46.5664 16.9269 45.8074 16.8195 45.0673 16.9482C44.3273 17.077 43.6388 17.4361 43.0875 17.9811L38.25 22.8083V19.3086C38.25 17.3882 37.5388 15.5465 36.273 14.1886C35.0071 12.8307 33.2902 12.0679 31.5 12.0679H11.25C9.45979 12.0679 7.7429 12.8307 6.47703 14.1886C5.21116 15.5465 4.5 17.3882 4.5 19.3086V38.6173C4.5 40.5376 5.21116 42.3793 6.47703 43.7372C7.7429 45.0951 9.45979 45.858 11.25 45.858H31.5C33.2902 45.858 35.0071 45.0951 36.273 43.7372C37.5388 42.3793 38.25 40.5376 38.25 38.6173V35.1176L43.11 39.9447C43.8255 40.6395 44.7549 41.0262 45.72 41.0308C46.2556 41.0295 46.7848 40.9061 47.2725 40.6688C47.9361 40.3808 48.5046 39.8872 48.9054 39.2509C49.3062 38.6146 49.5211 37.8646 49.5225 37.0967V20.8292C49.5192 20.0585 49.3011 19.3065 48.8961 18.6699C48.4911 18.0333 47.9178 17.5413 47.25 17.2571ZM33.75 38.6173C33.75 39.2574 33.5129 39.8713 33.091 40.3239C32.669 40.7765 32.0967 41.0308 31.5 41.0308H11.25C10.6533 41.0308 10.081 40.7765 9.65901 40.3239C9.23705 39.8713 9 39.2574 9 38.6173V19.3086C9 18.6685 9.23705 18.0546 9.65901 17.602C10.081 17.1493 10.6533 16.895 11.25 16.895H31.5C32.0967 16.895 32.669 17.1493 33.091 17.602C33.5129 18.0546 33.75 18.6685 33.75 19.3086V38.6173ZM45 35.2382L38.6775 28.9629L45 22.6876V35.2382Z" fill="#231F20"/>
</svg>
