<svg width="95" height="76" viewBox="0 0 95 76" fill="none" xmlns="http://www.w3.org/2000/svg">
<path d="M39.4587 60.0369C38.5436 60.0383 37.6567 59.784 36.9521 59.3182C36.5555 59.0559 36.2277 58.7338 35.9874 58.3703C35.7471 58.0067 35.599 57.6089 35.5517 57.1997C35.5044 56.7905 35.5588 56.3778 35.7117 55.9853C35.8647 55.5929 36.1131 55.2284 36.4429 54.9126L53.9896 38.165L37.0696 21.3862C36.7442 21.0666 36.5013 20.6988 36.3547 20.3041C36.2081 19.9093 36.1607 19.4953 36.2153 19.0859C36.2699 18.6765 36.4254 18.2798 36.6728 17.9184C36.9202 17.5571 37.2547 17.2384 37.6571 16.9805C38.0623 16.6961 38.5369 16.4815 39.051 16.3503C39.5651 16.2191 40.1077 16.1741 40.6446 16.2181C41.1816 16.2622 41.7013 16.3942 42.1712 16.6061C42.6412 16.8179 43.0511 17.105 43.3754 17.4492L62.2929 36.1965C62.869 36.7556 63.1839 37.4569 63.1839 38.1806C63.1839 38.9044 62.869 39.6056 62.2929 40.1647L42.7096 58.912C42.3167 59.2902 41.8176 59.5891 41.2527 59.7845C40.6879 59.9799 40.0733 60.0664 39.4587 60.0369Z" fill="#231F20"/>
</svg>
