<svg width="70" height="70" viewBox="0 0 70 70" fill="none" xmlns="http://www.w3.org/2000/svg">
<path d="M52.2897 8.71497H17.4298C15.1185 8.71497 12.9018 9.63315 11.2674 11.2675C9.63303 12.9019 8.71484 15.1186 8.71484 17.4299V52.2899C8.71484 54.6012 9.63303 56.8179 11.2674 58.4523C12.9018 60.0867 15.1185 61.0049 17.4298 61.0049H52.2897C54.6011 61.0049 56.8178 60.0867 58.4522 58.4523C60.0866 56.8179 61.0047 54.6012 61.0047 52.2899V17.4299C61.0047 15.1186 60.0866 12.9019 58.4522 11.2675C56.8178 9.63315 54.6011 8.71497 52.2897 8.71497ZM47.3513 27.917L34.0754 45.3469C33.8048 45.6985 33.4573 45.9834 33.0595 46.1798C32.6616 46.3762 32.2241 46.4788 31.7805 46.4799C31.3392 46.4823 30.9033 46.3841 30.5056 46.1928C30.108 46.0015 29.7591 45.7222 29.4855 45.376L22.3974 36.3415C22.1627 36.0401 21.9898 35.6954 21.8884 35.3272C21.7869 34.959 21.759 34.5744 21.8062 34.1954C21.8534 33.8164 21.9748 33.4504 22.1635 33.1183C22.3521 32.7862 22.6044 32.4946 22.9057 32.2599C23.5144 31.7861 24.2864 31.5735 25.0518 31.6688C25.4308 31.716 25.7968 31.8374 26.1289 32.0261C26.461 32.2147 26.7526 32.4669 26.9873 32.7683L31.7224 38.8107L42.7033 24.2857C42.936 23.9805 43.2265 23.7242 43.5583 23.5313C43.8901 23.3384 44.2566 23.2127 44.637 23.1614C45.0173 23.1102 45.4041 23.1344 45.7751 23.2326C46.1461 23.3308 46.4941 23.5011 46.7993 23.7338C47.1045 23.9665 47.3609 24.257 47.5538 24.5888C47.7467 24.9206 47.8724 25.2871 47.9236 25.6675C47.9749 26.0478 47.9507 26.4346 47.8525 26.8056C47.7543 27.1766 47.584 27.5246 47.3513 27.8298V27.917Z" fill="white"/>
</svg>
