<svg width="60" height="60" viewBox="0 0 60 60" fill="none" xmlns="http://www.w3.org/2000/svg">
<path d="M24.8329 47.1824C24.2527 47.1836 23.6903 46.9815 23.2436 46.6113C22.9921 46.4028 22.7843 46.1468 22.6319 45.8579C22.4796 45.5689 22.3857 45.2528 22.3557 44.9275C22.3257 44.6023 22.3602 44.2743 22.4571 43.9624C22.5541 43.6505 22.7116 43.3608 22.9207 43.1098L34.0459 29.7994L23.3181 16.4641C23.1118 16.2101 22.9578 15.9178 22.8648 15.6041C22.7718 15.2904 22.7418 14.9613 22.7764 14.636C22.811 14.3106 22.9096 13.9953 23.0665 13.7081C23.2234 13.4209 23.4355 13.1676 23.6906 12.9627C23.9475 12.7366 24.2484 12.5661 24.5744 12.4618C24.9003 12.3575 25.2443 12.3218 25.5848 12.3568C25.9252 12.3917 26.2547 12.4967 26.5527 12.6651C26.8506 12.8334 27.1106 13.0616 27.3162 13.3352L39.3105 28.2349C39.6757 28.6793 39.8754 29.2366 39.8754 29.8118C39.8754 30.387 39.6757 30.9444 39.3105 31.3887L26.894 46.2885C26.6449 46.589 26.3284 46.8265 25.9703 46.9819C25.6122 47.1372 25.2225 47.2059 24.8329 47.1824Z" fill="#231F20"/>
</svg>
