<svg width="54" height="58" viewBox="0 0 54 58" fill="none" xmlns="http://www.w3.org/2000/svg">
<path d="M47.25 17.2571C46.5664 16.9269 45.8074 16.8195 45.0673 16.9483C44.3273 17.077 43.6388 17.4362 43.0875 17.9812L38.25 22.8084V19.3087C38.25 17.3883 37.5388 15.5466 36.273 14.1887C35.0071 12.8308 33.2902 12.0679 31.5 12.0679H11.25C9.45979 12.0679 7.7429 12.8308 6.47703 14.1887C5.21116 15.5466 4.5 17.3883 4.5 19.3087V38.6173C4.5 40.5377 5.21116 42.3794 6.47703 43.7373C7.7429 45.0952 9.45979 45.8581 11.25 45.8581H31.5C33.2902 45.8581 35.0071 45.0952 36.273 43.7373C37.5388 42.3794 38.25 40.5377 38.25 38.6173V35.1176L43.11 39.9448C43.8255 40.6395 44.7549 41.0263 45.72 41.0309C46.2556 41.0296 46.7848 40.9062 47.2725 40.6689C47.9361 40.3809 48.5046 39.8872 48.9054 39.251C49.3062 38.6147 49.521 37.8647 49.5225 37.0968V20.8292C49.5192 20.0585 49.3011 19.3065 48.8961 18.6699C48.4911 18.0334 47.9178 17.5413 47.25 17.2571ZM33.75 38.6173C33.75 39.2574 33.5129 39.8713 33.091 40.324C32.669 40.7766 32.0967 41.0309 31.5 41.0309H11.25C10.6533 41.0309 10.081 40.7766 9.65901 40.324C9.23705 39.8713 9 39.2574 9 38.6173V19.3087C9 18.6686 9.23705 18.0546 9.65901 17.602C10.081 17.1494 10.6533 16.8951 11.25 16.8951H31.5C32.0967 16.8951 32.669 17.1494 33.091 17.602C33.5129 18.0546 33.75 18.6686 33.75 19.3087V38.6173ZM45 35.2383L38.6775 28.963L45 22.6877V35.2383Z" fill="#231F20"/>
</svg>
