<svg width="64" height="62" viewBox="0 0 64 62" fill="none" xmlns="http://www.w3.org/2000/svg">
<path d="M55.328 50.0127L46.2613 41.2552C49.1866 37.6449 50.7739 33.1865 50.768 28.5968C50.768 24.5094 49.5168 20.5137 47.1727 17.1151C44.8285 13.7165 41.4967 11.0676 37.5986 9.50334C33.7004 7.93913 29.411 7.52986 25.2727 8.32729C21.1345 9.12472 17.3332 11.093 14.3497 13.9833C11.3662 16.8736 9.33439 20.556 8.51124 24.565C7.68809 28.5739 8.11056 32.7293 9.72523 36.5056C11.3399 40.282 14.0742 43.5097 17.5825 45.7806C21.0907 48.0514 25.2153 49.2635 29.4347 49.2635C34.1724 49.2692 38.7745 47.7316 42.5013 44.8977L51.5413 53.681C51.7892 53.9231 52.0842 54.1153 52.4091 54.2465C52.7341 54.3776 53.0826 54.4452 53.4347 54.4452C53.7867 54.4452 54.1352 54.3776 54.4602 54.2465C54.7852 54.1153 55.0801 53.9231 55.328 53.681C55.5779 53.4409 55.7763 53.1551 55.9117 52.8403C56.0471 52.5255 56.1168 52.1879 56.1168 51.8468C56.1168 51.5058 56.0471 51.1682 55.9117 50.8534C55.7763 50.5386 55.5779 50.2528 55.328 50.0127ZM13.4347 28.5968C13.4347 25.5312 14.373 22.5345 16.1311 19.9855C17.8892 17.4366 20.3881 15.4499 23.3117 14.2767C26.2353 13.1036 29.4524 12.7966 32.5561 13.3947C35.6598 13.9927 38.5107 15.469 40.7484 17.6367C42.986 19.8044 44.5099 22.5662 45.1272 25.573C45.7446 28.5797 45.4277 31.6962 44.2167 34.5284C43.0057 37.3607 40.955 39.7815 38.3238 41.4846C35.6926 43.1878 32.5992 44.0968 29.4347 44.0968C25.1912 44.0968 21.1215 42.4638 18.121 39.557C15.1204 36.6502 13.4347 32.7077 13.4347 28.5968Z" fill="black"/>
</svg>
