<svg width="65" height="62" viewBox="0 0 65 62" fill="none" xmlns="http://www.w3.org/2000/svg">
<path d="M49.8244 39.6043C51.4736 39.6043 53.0857 39.0983 54.457 38.1503C55.8282 37.2022 56.897 35.8547 57.5281 34.2782C58.1592 32.7017 58.3243 30.9669 58.0026 29.2933C57.6808 27.6196 56.8867 26.0823 55.7205 24.8757C54.5544 23.669 53.0686 22.8473 51.4512 22.5144C49.8337 22.1815 48.1571 22.3524 46.6335 23.0054C45.1098 23.6584 43.8076 24.7643 42.8913 26.1831C41.9751 27.6019 41.4861 29.2701 41.4861 30.9765C41.4861 33.2647 42.3646 35.4592 43.9283 37.0773C45.4921 38.6953 47.613 39.6043 49.8244 39.6043Z" fill="#231F20"/>
<path d="M62.3321 61.1746C62.8849 61.1746 63.4151 60.9474 63.8061 60.5429C64.197 60.1384 64.4166 59.5897 64.4166 59.0177C64.4166 55.0132 62.8793 51.1728 60.1427 48.3413C57.4062 45.5097 53.6946 43.9189 49.8245 43.9189C45.9545 43.9189 42.2429 45.5097 39.5064 48.3413C36.7698 51.1728 35.2324 55.0132 35.2324 59.0177C35.2324 59.5897 35.452 60.1384 35.843 60.5429C36.2339 60.9474 36.7641 61.1746 37.317 61.1746H62.3321Z" fill="#231F20"/>
</svg>
