<svg width="70" height="70" viewBox="0 0 70 70" fill="none" xmlns="http://www.w3.org/2000/svg">
<path d="M52.29 8.71497H17.4301C15.1187 8.71497 12.902 9.63315 11.2676 11.2675C9.63327 12.9019 8.71509 15.1186 8.71509 17.4299V52.2899C8.71509 54.6012 9.63327 56.8179 11.2676 58.4523C12.902 60.0867 15.1187 61.0049 17.4301 61.0049H52.29C54.6014 61.0049 56.818 60.0867 58.4524 58.4523C60.0868 56.8179 61.005 54.6012 61.005 52.2899V17.4299C61.005 15.1186 60.0868 12.9019 58.4524 11.2675C56.818 9.63315 54.6014 8.71497 52.29 8.71497ZM47.3515 27.917L34.0757 45.3469C33.8051 45.6985 33.4575 45.9834 33.0597 46.1798C32.6619 46.3762 32.2244 46.4788 31.7807 46.4799C31.3395 46.4823 30.9035 46.3841 30.5059 46.1928C30.1082 46.0015 29.7594 45.7222 29.4858 45.376L22.3976 36.3415C22.163 36.0401 21.99 35.6954 21.8886 35.3272C21.7872 34.959 21.7593 34.5744 21.8065 34.1954C21.8537 33.8164 21.9751 33.4504 22.1637 33.1183C22.3524 32.7862 22.6046 32.4946 22.906 32.2599C23.5146 31.7861 24.2866 31.5735 25.052 31.6688C25.431 31.716 25.797 31.8374 26.1291 32.0261C26.4612 32.2147 26.7529 32.4669 26.9875 32.7683L31.7226 38.8107L42.7035 24.2857C42.9362 23.9805 43.2268 23.7242 43.5586 23.5313C43.8903 23.3384 44.2569 23.2127 44.6372 23.1614C45.0176 23.1102 45.4043 23.1344 45.7753 23.2326C46.1463 23.3308 46.4944 23.5011 46.7996 23.7338C47.1047 23.9665 47.3611 24.257 47.554 24.5888C47.7469 24.9206 47.8726 25.2871 47.9238 25.6675C47.9751 26.0478 47.9509 26.4346 47.8527 26.8056C47.7545 27.1766 47.5842 27.5246 47.3515 27.8298V27.917Z" fill="white"/>
</svg>
