<svg width="42" height="46" viewBox="0 0 42 46" fill="none" xmlns="http://www.w3.org/2000/svg">
<path d="M30.338 29.2814C31.5901 29.2814 32.814 28.9009 33.8551 28.1881C34.8962 27.4752 35.7076 26.462 36.1867 25.2766C36.6659 24.0911 36.7912 22.7867 36.547 21.5282C36.3027 20.2698 35.6998 19.1138 34.8144 18.2065C33.9291 17.2993 32.801 16.6814 31.573 16.4311C30.345 16.1807 29.0721 16.3092 27.9153 16.8002C26.7586 17.2913 25.7699 18.1228 25.0742 19.1896C24.3786 20.2565 24.0073 21.5108 24.0073 22.7939C24.0073 24.5145 24.6743 26.1646 25.8615 27.3813C27.0488 28.5979 28.659 29.2814 30.338 29.2814Z" fill="#231F20"/>
<path d="M39.8339 45.5004C40.2536 45.5004 40.6562 45.3295 40.953 45.0253C41.2498 44.7212 41.4165 44.3087 41.4165 43.8785C41.4165 40.8675 40.2493 37.9798 38.1717 35.8506C36.094 33.7215 33.2761 32.5254 30.3379 32.5254C27.3997 32.5254 24.5818 33.7215 22.5041 35.8506C20.4265 37.9798 19.2593 40.8675 19.2593 43.8785C19.2593 44.3087 19.426 44.7212 19.7228 45.0253C20.0196 45.3295 20.4222 45.5004 20.8419 45.5004H39.8339Z" fill="#231F20"/>
</svg>
