<svg width="54" height="57" viewBox="0 0 54 57" fill="none" xmlns="http://www.w3.org/2000/svg">
<path d="M39.5554 36.682C41.1879 36.682 42.7838 36.2053 44.1411 35.3123C45.4985 34.4193 46.5564 33.15 47.1812 31.6649C47.8059 30.1799 47.9694 28.5458 47.6509 26.9693C47.3324 25.3928 46.5463 23.9447 45.3919 22.8081C44.2376 21.6715 42.7668 20.8974 41.1657 20.5838C39.5646 20.2703 37.905 20.4312 36.3967 21.0463C34.8885 21.6614 33.5994 22.7031 32.6924 24.0396C31.7855 25.3761 31.3014 26.9474 31.3014 28.5548C31.3014 30.7103 32.171 32.7774 33.7189 34.3016C35.2669 35.8257 37.3663 36.682 39.5554 36.682Z" fill="#231F20"/>
<path d="M51.9365 57C52.4838 57 53.0086 56.7859 53.3956 56.4049C53.7826 56.0239 54 55.5071 54 54.9682C54 51.1962 52.4782 47.5786 49.7693 44.9114C47.0604 42.2442 43.3864 40.7457 39.5554 40.7457C35.7245 40.7457 32.0505 42.2442 29.3416 44.9114C26.6327 47.5786 25.1109 51.1962 25.1109 54.9682C25.1109 55.5071 25.3283 56.0239 25.7153 56.4049C26.1022 56.7859 26.6271 57 27.1744 57H51.9365Z" fill="#231F20"/>
</svg>
