<svg width="94" height="227" viewBox="0 0 94 227" fill="none" xmlns="http://www.w3.org/2000/svg">
<path d="M39.1669 211.367C38.2517 211.368 37.3649 211.114 36.6602 210.648C36.2636 210.386 35.9358 210.063 35.6955 209.7C35.4552 209.336 35.3072 208.939 35.2599 208.529C35.2126 208.12 35.2669 207.708 35.4199 207.315C35.5728 206.923 35.8213 206.558 36.151 206.242L53.6977 189.495L36.7777 172.716C36.4524 172.396 36.2094 172.029 36.0628 171.634C35.9162 171.239 35.8688 170.825 35.9234 170.416C35.978 170.006 36.1335 169.609 36.3809 169.248C36.6284 168.887 36.9629 168.568 37.3652 168.31C37.7705 168.026 38.245 167.811 38.7591 167.68C39.2732 167.549 39.8158 167.504 40.3527 167.548C40.8897 167.592 41.4094 167.724 41.8794 167.936C42.3493 168.148 42.7593 168.435 43.0835 168.779L62.001 187.526C62.5771 188.085 62.892 188.787 62.892 189.51C62.892 190.234 62.5771 190.935 62.001 191.494L42.4177 210.242C42.0248 210.62 41.5257 210.919 40.9609 211.114C40.396 211.31 39.7814 211.396 39.1669 211.367Z" fill="#231F20"/>
</svg>
