<svg width="60" height="60" viewBox="0 0 60 60" fill="none" xmlns="http://www.w3.org/2000/svg">
<path d="M24.8334 47.1824C24.2531 47.1836 23.6908 46.9815 23.2441 46.6113C22.9926 46.4028 22.7847 46.1468 22.6324 45.8579C22.48 45.5689 22.3862 45.2528 22.3562 44.9275C22.3262 44.6023 22.3607 44.2743 22.4576 43.9624C22.5546 43.6505 22.7121 43.3608 22.9212 43.1098L34.0464 29.7994L23.3186 16.4641C23.1123 16.2101 22.9582 15.9178 22.8653 15.6041C22.7723 15.2904 22.7423 14.9613 22.7769 14.636C22.8115 14.3106 22.9101 13.9953 23.067 13.7081C23.2239 13.4209 23.436 13.1676 23.6911 12.9627C23.948 12.7366 24.2489 12.5661 24.5748 12.4618C24.9008 12.3575 25.2448 12.3218 25.5852 12.3568C25.9257 12.3917 26.2552 12.4967 26.5532 12.6651C26.8511 12.8334 27.1111 13.0616 27.3167 13.3352L39.311 28.2349C39.6762 28.6793 39.8759 29.2366 39.8759 29.8118C39.8759 30.387 39.6762 30.9444 39.311 31.3887L26.8945 46.2885C26.6454 46.589 26.3289 46.8265 25.9708 46.9819C25.6127 47.1372 25.223 47.2059 24.8334 47.1824Z" fill="#231F20"/>
</svg>
