<svg width="94" height="75" viewBox="0 0 94 75" fill="none" xmlns="http://www.w3.org/2000/svg">
<path d="M39.1669 59.3666C38.2517 59.368 37.3649 59.1138 36.6602 58.648C36.2636 58.3856 35.9358 58.0635 35.6955 57.7C35.4552 57.3364 35.3072 56.9387 35.2599 56.5294C35.2126 56.1202 35.2669 55.7075 35.4199 55.315C35.5728 54.9226 35.8213 54.5581 36.151 54.2423L53.6977 37.4947L36.7777 20.7159C36.4524 20.3963 36.2094 20.0285 36.0628 19.6338C35.9162 19.239 35.8688 18.825 35.9234 18.4156C35.978 18.0062 36.1335 17.6095 36.3809 17.2481C36.6284 16.8868 36.9629 16.5681 37.3652 16.3102C37.7705 16.0258 38.245 15.8112 38.7591 15.68C39.2732 15.5489 39.8158 15.5038 40.3527 15.5479C40.8897 15.5919 41.4094 15.7239 41.8794 15.9358C42.3493 16.1476 42.7593 16.4347 43.0835 16.7789L62.001 35.5263C62.5771 36.0853 62.892 36.7866 62.892 37.5103C62.892 38.2341 62.5771 38.9354 62.001 39.4944L42.4177 58.2418C42.0248 58.6199 41.5257 58.9188 40.9609 59.1142C40.396 59.3097 39.7814 59.3961 39.1669 59.3666Z" fill="#231F20"/>
</svg>
