<svg width="49" height="52" viewBox="0 0 49 52" fill="none" xmlns="http://www.w3.org/2000/svg">
<path d="M42.8752 15.6717C42.2548 15.3815 41.5661 15.287 40.8946 15.4002C40.2231 15.5134 39.5983 15.8292 39.0981 16.3083L34.7085 20.5521V17.4754C34.7085 15.7871 34.0632 14.1679 32.9145 12.9741C31.7659 11.7803 30.2079 11.1096 28.5835 11.1096H10.2085C8.58404 11.1096 7.02613 11.7803 5.87747 12.9741C4.72881 14.1679 4.0835 15.7871 4.0835 17.4754V34.4507C4.0835 36.139 4.72881 37.7581 5.87747 38.9519C7.02613 40.1457 8.58404 40.8164 10.2085 40.8164H28.5835C30.2079 40.8164 31.7659 40.1457 32.9145 38.9519C34.0632 37.7581 34.7085 36.139 34.7085 34.4507V31.3739L39.1185 35.6177C39.7677 36.2285 40.6111 36.5685 41.4868 36.5726C41.9728 36.5714 42.453 36.4629 42.8956 36.2543C43.4978 36.0011 44.0136 35.5671 44.3773 35.0077C44.741 34.4483 44.9359 33.789 44.9372 33.1139V18.8122C44.9343 18.1346 44.7363 17.4735 44.3688 16.9138C44.0014 16.3542 43.4812 15.9216 42.8752 15.6717ZM30.6252 34.4507C30.6252 35.0134 30.4101 35.5532 30.0272 35.9511C29.6443 36.349 29.125 36.5726 28.5835 36.5726H10.2085C9.66701 36.5726 9.14771 36.349 8.76482 35.9511C8.38193 35.5532 8.16683 35.0134 8.16683 34.4507V17.4754C8.16683 16.9126 8.38193 16.3729 8.76482 15.9749C9.14771 15.577 9.66701 15.3534 10.2085 15.3534H28.5835C29.125 15.3534 29.6443 15.577 30.0272 15.9749C30.4101 16.3729 30.6252 16.9126 30.6252 17.4754V34.4507ZM40.8335 31.48L35.0964 25.963L40.8335 20.446V31.48Z" fill="#231F20"/>
</svg>
