<svg width="94" height="75" viewBox="0 0 94 75" fill="none" xmlns="http://www.w3.org/2000/svg">
<path d="M39.1668 59.3664C38.2517 59.3678 37.3648 59.1135 36.6602 58.6477C36.2636 58.3854 35.9358 58.0633 35.6955 57.6997C35.4552 57.3362 35.3071 56.9384 35.2598 56.5292C35.2125 56.1199 35.2669 55.7073 35.4198 55.3148C35.5728 54.9224 35.8212 54.5578 36.151 54.2421L53.6977 37.4945L36.7777 20.7156C36.4523 20.396 36.2094 20.0283 36.0628 19.6335C35.9162 19.2388 35.8688 18.8248 35.9234 18.4154C35.978 18.006 36.1335 17.6092 36.3809 17.2479C36.6283 16.8866 36.9628 16.5679 37.3652 16.31C37.7704 16.0256 38.245 15.811 38.7591 15.6798C39.2732 15.5486 39.8158 15.5036 40.3527 15.5476C40.8897 15.5916 41.4094 15.7237 41.8793 15.9355C42.3493 16.1474 42.7592 16.4344 43.0835 16.7787L62.001 35.526C62.5771 36.0851 62.892 36.7864 62.892 37.5101C62.892 38.2338 62.5771 38.9351 62.001 39.4942L42.4177 58.2415C42.0248 58.6196 41.5257 58.9185 40.9608 59.114C40.396 59.3094 39.7814 59.3959 39.1668 59.3664Z" fill="#231F20"/>
</svg>
