<svg width="49" height="54" viewBox="0 0 49 54" fill="none" xmlns="http://www.w3.org/2000/svg">
<path d="M42.8752 15.9871C42.2548 15.682 41.5661 15.5828 40.8946 15.7017C40.2231 15.8207 39.5983 16.1526 39.0981 16.6562L34.7085 21.1166V17.8828C34.7085 16.1083 34.0632 14.4066 32.9145 13.1518C31.7659 11.8971 30.2079 11.1922 28.5835 11.1922H10.2085C8.58404 11.1922 7.02613 11.8971 5.87747 13.1518C4.72881 14.4066 4.0835 16.1083 4.0835 17.8828V35.7243C4.0835 37.4988 4.72881 39.2006 5.87747 40.4553C7.02613 41.71 8.58404 42.4149 10.2085 42.4149H28.5835C30.2079 42.4149 31.7659 41.71 32.9145 40.4553C34.0632 39.2006 34.7085 37.4988 34.7085 35.7243V32.4906L39.1185 36.9509C39.7677 37.5929 40.6111 37.9503 41.4868 37.9545C41.9728 37.9533 42.453 37.8393 42.8956 37.62C43.4978 37.3539 44.0136 36.8978 44.3773 36.3098C44.741 35.7219 44.9359 35.0289 44.9372 34.3193V19.2878C44.9343 18.5757 44.7363 17.8808 44.3688 17.2926C44.0014 16.7044 43.4812 16.2497 42.8752 15.9871ZM30.6252 35.7243C30.6252 36.3158 30.4101 36.8831 30.0272 37.3013C29.6443 37.7196 29.125 37.9545 28.5835 37.9545H10.2085C9.66701 37.9545 9.14771 37.7196 8.76482 37.3013C8.38193 36.8831 8.16683 36.3158 8.16683 35.7243V17.8828C8.16683 17.2913 8.38193 16.724 8.76482 16.3058C9.14771 15.8876 9.66701 15.6526 10.2085 15.6526H28.5835C29.125 15.6526 29.6443 15.8876 30.0272 16.3058C30.4101 16.724 30.6252 17.2913 30.6252 17.8828V35.7243ZM40.8335 32.6021L35.0964 26.8036L40.8335 21.0051V32.6021Z" fill="#231F20"/>
</svg>
