<svg width="48" height="47" viewBox="0 0 48 47" fill="none" xmlns="http://www.w3.org/2000/svg">
<path d="M41.6701 14.2939C41.0672 14.034 40.3979 13.9495 39.7452 14.0508C39.0926 14.1521 38.4854 14.4349 37.9992 14.8639L33.7329 18.6639V15.9089C33.7329 14.3972 33.1058 12.9474 31.9894 11.8785C30.873 10.8095 29.3589 10.209 27.7801 10.209H9.92139C8.34259 10.209 6.82845 10.8095 5.71207 11.8785C4.59568 12.9474 3.96851 14.3972 3.96851 15.9089V31.1087C3.96851 32.6204 4.59568 34.0702 5.71207 35.1391C6.82845 36.208 8.34259 36.8086 9.92139 36.8086H27.7801C29.3589 36.8086 30.873 36.208 31.9894 35.1391C33.1058 34.0702 33.7329 32.6204 33.7329 31.1087V28.3537L38.019 32.1536C38.65 32.7005 39.4697 33.005 40.3208 33.0086C40.7931 33.0076 41.2598 32.9104 41.69 32.7236C42.2752 32.497 42.7766 32.1083 43.1301 31.6075C43.4835 31.1066 43.673 30.5162 43.6743 29.9117V17.1059C43.6714 16.4992 43.479 15.9072 43.1218 15.4061C42.7647 14.905 42.2591 14.5176 41.6701 14.2939ZM29.7644 31.1087C29.7644 31.6126 29.5553 32.0958 29.1832 32.4521C28.811 32.8085 28.3063 33.0086 27.7801 33.0086H9.92139C9.39513 33.0086 8.89041 32.8085 8.51829 32.4521C8.14616 32.0958 7.9371 31.6126 7.9371 31.1087V15.9089C7.9371 15.405 8.14616 14.9217 8.51829 14.5654C8.89041 14.2091 9.39513 14.0089 9.92139 14.0089H27.7801C28.3063 14.0089 28.811 14.2091 29.1832 14.5654C29.5553 14.9217 29.7644 15.405 29.7644 15.9089V31.1087ZM39.6858 28.4487L34.11 23.5088L39.6858 18.5689V28.4487Z" fill="#231F20"/>
</svg>
