<svg width="416" height="300" viewBox="0 0 416 300" fill="none" xmlns="http://www.w3.org/2000/svg">
<ellipse cx="208" cy="150" rx="208" ry="150" fill="#FFD336"/>
<path d="M168.625 154.425H235.338L214.919 175.912C214.446 176.41 214.09 176.985 213.871 177.604C213.652 178.223 213.574 178.873 213.642 179.519C213.779 180.822 214.501 182.024 215.65 182.86C216.799 183.697 218.28 184.099 219.767 183.979C221.254 183.859 222.626 183.226 223.581 182.22L251.706 152.651C251.895 152.416 252.065 152.169 252.213 151.912C252.213 151.665 252.494 151.517 252.606 151.271C252.861 150.706 252.995 150.105 253 149.497C252.995 148.889 252.861 148.288 252.606 147.723C252.606 147.476 252.325 147.329 252.213 147.082C252.065 146.825 251.895 146.578 251.706 146.343L223.581 116.774C223.052 116.218 222.39 115.77 221.641 115.464C220.893 115.157 220.076 114.999 219.25 115C217.936 114.998 216.662 115.399 215.65 116.133C215.08 116.547 214.61 117.055 214.264 117.629C213.919 118.202 213.707 118.829 213.639 119.475C213.571 120.12 213.649 120.771 213.869 121.39C214.088 122.009 214.445 122.584 214.919 123.082L235.338 144.569H168.625C167.133 144.569 165.702 145.088 164.648 146.012C163.593 146.936 163 148.19 163 149.497C163 150.804 163.593 152.057 164.648 152.982C165.702 153.906 167.133 154.425 168.625 154.425Z" fill="#231F20"/>
</svg>
