<svg width="50" height="57" viewBox="0 0 50 57" fill="none" xmlns="http://www.w3.org/2000/svg">
<path d="M6.95163 2.40796C7.05263 15.6825 6.82321 28.9662 6.15633 42.2415C6.09531 43.3842 6.65348 44.0532 7.64476 44.0254C16.3684 43.9992 25.0529 43.1339 33.6889 41.492C36.1743 41.0076 38.6155 40.4518 41.1195 39.8424C41.8619 39.6453 42.402 38.9663 42.3187 38.0558C42.2702 37.2792 41.5608 36.5211 40.8184 36.7182C32.2776 38.8242 23.5813 40.1358 14.8993 40.6173C12.4071 40.7803 9.88007 40.8096 7.40653 40.8476C7.92051 41.4453 8.38097 42.034 8.89495 42.6316C9.37444 32.0793 9.68404 21.5629 9.72607 11.0021C9.73675 7.99367 9.74743 4.98521 9.70458 1.96789C9.71892 1.13765 8.88385 0.486803 8.20432 0.630286C7.36425 0.74714 6.91245 1.56885 6.95163 2.40796Z" fill="black"/>
<path d="M29.0636 32.8062C31.6363 33.1691 34.109 33.835 36.5352 34.8129C37.7262 35.2662 38.8986 35.8443 40.0083 36.4759C40.6119 36.8317 41.2248 37.1252 41.7656 37.5346C41.8631 37.6147 42.281 37.7479 42.3065 37.9439C42.3506 38.0152 42.3344 37.7568 42.2624 37.8727C42.0717 38.4164 41.57 38.8446 41.2284 39.2993C40.7521 39.9235 40.2758 40.5477 39.7995 41.1719C38.9096 42.3668 38.0197 43.5617 37.1298 44.7566C35.2872 47.1998 33.4447 49.6431 31.5487 52.0775C30.3893 53.6112 32.4528 55.5517 33.6122 54.018C36.821 49.7557 40.0831 45.5022 43.2919 41.2399C44.0377 40.2768 44.909 39.2067 44.9444 37.8701C44.9892 36.4711 44.2024 35.5095 43.253 34.9045C41.31 33.6232 39.2136 32.6361 37.1519 31.7827C34.6724 30.796 32.0928 30.1124 29.4667 29.7406C27.8205 29.4036 27.3546 32.5227 29.0636 32.8062Z" fill="black"/>
</svg>
