<svg width="49" height="53" viewBox="0 0 49 53" fill="none" xmlns="http://www.w3.org/2000/svg">
<path d="M7.55983 2.17241C7.67662 14.547 7.47474 26.9273 6.85094 39.2958C6.79376 40.3604 7.33305 40.989 8.28906 40.9719C16.7026 41.0253 25.0771 40.2961 33.4037 38.8426C35.8 38.4132 38.1536 37.9168 40.5677 37.3711C41.2834 37.1939 41.8034 36.5659 41.7217 35.7164C41.6737 34.9921 40.9885 34.2791 40.2728 34.4562C32.0387 36.3432 23.6534 37.4883 15.2808 37.8597C12.8774 37.9895 10.4402 37.9942 8.05466 38.0077C8.55124 38.5693 8.99619 39.1222 9.49277 39.6839C9.93982 29.8519 10.2231 20.0519 10.2482 10.2081C10.2541 7.40391 10.26 4.59969 10.2143 1.78674C10.2269 1.01297 9.42056 0.398845 8.7654 0.526535C7.95536 0.627973 7.52082 1.3899 7.55983 2.17241Z" fill="black"/>
<path d="M28.886 30.6988C31.3692 31.0608 33.7564 31.7048 36.0991 32.6395C37.2492 33.0734 38.3814 33.6236 39.4533 34.2232C40.0363 34.5609 40.6282 34.8403 41.1508 35.2274C41.245 35.303 41.6485 35.4312 41.6734 35.6144C41.7161 35.6813 41.7001 35.4399 41.6307 35.5475C41.4477 36.0533 40.9642 36.4484 40.6354 36.8699C40.1768 37.4482 39.7182 38.0266 39.2596 38.6049C38.4029 39.7122 37.5461 40.8196 36.6894 41.9269C34.9155 44.1909 33.1416 46.4549 31.3161 48.7102C30.1999 50.1313 32.1943 51.9614 33.3105 50.5402C36.3997 46.5905 39.5405 42.6496 42.6298 38.6999C43.3478 37.8077 44.1868 36.8167 44.2188 35.5693C44.2596 34.2638 43.4989 33.3591 42.5817 32.7858C40.7046 31.5722 38.68 30.6318 36.6892 29.8165C34.2949 28.873 31.8046 28.2115 29.2699 27.8408C27.6808 27.5113 27.2365 30.4187 28.886 30.6988Z" fill="black"/>
</svg>
