<svg width="33" height="49" viewBox="0 0 33 49" fill="none" xmlns="http://www.w3.org/2000/svg">
<path d="M16.2087 21.4167C18.0406 21.4167 19.8313 20.7887 21.3545 19.612C22.8776 18.4354 24.0648 16.7629 24.7658 14.8062C25.4668 12.8495 25.6503 10.6964 25.2929 8.61912C24.9355 6.54188 24.0534 4.63381 22.758 3.1362C21.4627 1.63859 19.8123 0.61871 18.0156 0.205521C16.219 -0.207668 14.3567 0.00439564 12.6642 0.814895C10.9718 1.62539 9.52523 2.99793 8.50749 4.75893C7.48975 6.51993 6.94653 8.5903 6.94653 10.7082C6.94653 13.5483 7.92236 16.2721 9.65936 18.2803C11.3963 20.2885 13.7522 21.4167 16.2087 21.4167Z" fill="#231F20"/>
<path d="M30.1021 48.1884C30.7163 48.1884 31.3052 47.9064 31.7395 47.4043C32.1737 46.9023 32.4177 46.2213 32.4177 45.5113C32.4177 40.5412 30.71 35.7747 27.6702 32.2603C24.6305 28.7459 20.5077 26.7715 16.2089 26.7715C11.9101 26.7715 7.7873 28.7459 4.74756 32.2603C1.70783 35.7747 0.000122134 40.5412 0.00012207 45.5113C0.00012207 46.2213 0.24408 46.9023 0.678328 47.4043C1.11258 47.9064 1.70154 48.1884 2.31566 48.1884H30.1021Z" fill="#231F20"/>
</svg>
