<svg width="42" height="46" viewBox="0 0 42 46" fill="none" xmlns="http://www.w3.org/2000/svg">
<path d="M20.9758 20.3109C23.3464 20.3109 25.6638 19.7153 27.635 18.5994C29.6061 17.4835 31.1424 15.8975 32.0496 14.0418C32.9568 12.1861 33.1942 10.1442 32.7317 8.17423C32.2692 6.20427 31.1276 4.39474 29.4513 2.97447C27.775 1.5542 25.6393 0.58699 23.3142 0.195139C20.9891 -0.196712 18.5791 0.00440017 16.3889 0.773043C14.1987 1.54169 12.3267 2.84334 11.0096 4.51339C9.69259 6.18345 8.98961 8.14691 8.98961 10.1555C8.98961 12.8489 10.2524 15.4319 12.5003 17.3365C14.7481 19.241 17.7969 20.3109 20.9758 20.3109Z" fill="#231F20"/>
<path d="M38.9551 45.6996C39.7498 45.6996 40.512 45.4321 41.074 44.956C41.636 44.4798 41.9517 43.8341 41.9517 43.1607C41.9517 38.4473 39.7417 33.9269 35.808 30.594C31.8743 27.2611 26.539 25.3887 20.9758 25.3887C15.4127 25.3887 10.0774 27.2611 6.14368 30.594C2.20995 33.9269 8.28972e-08 38.4473 0 43.1607C0 43.8341 0.315707 44.4798 0.877669 44.956C1.43963 45.4321 2.20181 45.6996 2.99655 45.6996H38.9551Z" fill="#231F20"/>
</svg>
