<svg width="31" height="31" viewBox="0 0 31 31" fill="none" xmlns="http://www.w3.org/2000/svg">
<path fill-rule="evenodd" clip-rule="evenodd" d="M10.6316 13.9401C10.3975 12.7272 10.2748 11.4746 10.2748 10.1933V1.40137H29.9275V29.846C25.1684 29.846 20.8045 28.1544 17.4041 25.3397C14.0117 27.5997 8.57204 29.7479 2 28.553C3.81011 27.7773 10.792 23.1227 10.5334 13.8135C10.5648 13.8567 10.5975 13.8989 10.6316 13.9401Z" fill="#FFFDFD"/>
<path d="M10.6316 13.9401L10.321 14.1968L11.0272 13.8638L10.6316 13.9401ZM10.2748 1.40137V0.998442H9.87192V1.40137H10.2748ZM29.9275 1.40137H30.3304V0.998442H29.9275V1.40137ZM29.9275 29.846V30.2489H30.3304V29.846H29.9275ZM17.4041 25.3397L17.661 25.0293L17.4301 24.8382L17.1807 25.0043L17.4041 25.3397ZM2 28.553L1.84128 28.1827L0.610887 28.71L1.92792 28.9494L2 28.553ZM10.5334 13.8135L10.8592 13.5765L10.0945 12.5251L10.1306 13.8247L10.5334 13.8135ZM9.87192 10.1933C9.87192 11.5004 9.99701 12.7786 10.236 14.0165L11.0272 13.8638C10.7979 12.6759 10.6778 11.4488 10.6778 10.1933H9.87192ZM9.87192 1.40137V10.1933H10.6778V1.40137H9.87192ZM29.9275 0.998442H10.2748V1.80429H29.9275V0.998442ZM30.3304 29.846V1.40137H29.5246V29.846H30.3304ZM17.1472 25.65C20.6171 28.5224 25.0712 30.2489 29.9275 30.2489V29.443C25.2657 29.443 20.9918 27.7864 17.661 25.0293L17.1472 25.65ZM1.92792 28.9494C8.6283 30.1677 14.1727 27.9766 17.6275 25.675L17.1807 25.0043C13.8507 27.2228 8.51578 29.3282 2.07208 28.1566L1.92792 28.9494ZM10.1306 13.8247C10.2568 18.3681 8.61843 21.7683 6.72782 24.1316C4.8293 26.5047 2.68461 27.8212 1.84128 28.1827L2.15872 28.9234C3.1255 28.509 5.3768 27.1104 7.35708 24.635C9.34528 22.1498 11.0685 18.5681 10.9361 13.8024L10.1306 13.8247ZM10.9422 13.6835C10.9133 13.6485 10.8857 13.6129 10.8592 13.5765L10.2075 14.0505C10.2439 14.1005 10.2817 14.1493 10.321 14.1968L10.9422 13.6835Z" fill="#FFFDFD"/>
</svg>
