<svg width="28" height="44" viewBox="0 0 28 44" fill="none" xmlns="http://www.w3.org/2000/svg">
<path d="M4.03159 43.9147C3.11645 43.9161 2.22958 43.6619 1.52492 43.196C1.12833 42.9337 0.800497 42.6116 0.560202 42.2481C0.319907 41.8845 0.171871 41.4868 0.124574 41.0775C0.0772768 40.6683 0.131648 40.2556 0.284572 39.8631C0.437497 39.4707 0.685966 39.1062 1.01576 38.7904L18.5624 22.0428L1.64243 5.26397C1.31709 4.94436 1.07413 4.57661 0.92752 4.18186C0.780913 3.78711 0.733545 3.37313 0.78814 2.96372C0.842735 2.55432 0.998215 2.15756 1.24565 1.79625C1.49308 1.43493 1.82758 1.11619 2.22993 0.858345C2.63517 0.573897 3.10973 0.359342 3.62384 0.228145C4.13795 0.0969476 4.68051 0.0519424 5.21746 0.0959514C5.75441 0.13996 6.27416 0.272034 6.74409 0.483885C7.21402 0.695735 7.62398 0.982788 7.94826 1.32703L26.8658 20.0744C27.4418 20.6334 27.7567 21.3347 27.7567 22.0584C27.7567 22.7822 27.4418 23.4834 26.8658 24.0425L7.28242 42.7899C6.88951 43.168 6.3904 43.4669 5.82558 43.6623C5.26076 43.8578 4.64614 43.9442 4.03159 43.9147Z" fill="#231F20"/>
</svg>
